<?xml version="1.0" encoding="UTF-8" standalone="no"?>
<svg
   xmlns:dc="http://purl.org/dc/elements/1.1/"
   xmlns:cc="http://creativecommons.org/ns#"
   xmlns:rdf="http://www.w3.org/1999/02/22-rdf-syntax-ns#"
   xmlns:svg="http://www.w3.org/2000/svg"
   xmlns="http://www.w3.org/2000/svg"
   xmlns:sodipodi="http://sodipodi.sourceforge.net/DTD/sodipodi-0.dtd"
   xmlns:inkscape="http://www.inkscape.org/namespaces/inkscape"
   version="1.1"
   id="svg1320"
   xml:space="preserve"
   width="1375.6934"
   height="1375.6934"
   viewBox="0 0 1375.6934 1375.6934"
   sodipodi:docname="logo-lock.svg"
   inkscape:version="1.0.2 (e86c870879, 2021-01-15, custom)"><metadata
     id="metadata1326"><rdf:RDF><cc:Work
         rdf:about=""><dc:format>image/svg+xml</dc:format><dc:type
           rdf:resource="http://purl.org/dc/dcmitype/StillImage" /><dc:title></dc:title></cc:Work></rdf:RDF></metadata><defs
     id="defs1324"><clipPath
       clipPathUnits="userSpaceOnUse"
       id="clipPath1336"><path
         d="M 0,1080 H 1920 V 0 H 0 Z"
         id="path1334" /></clipPath><clipPath
       clipPathUnits="userSpaceOnUse"
       id="clipPath1356"><path
         d="M 596.586,836.657 H 1362.44 V 24.115 H 596.586 Z"
         id="path1354" /></clipPath><clipPath
       clipPathUnits="userSpaceOnUse"
       id="clipPath1360"><path
         d="m 1057.883,651.613 c -0.01,-0.754 -0.039,-1.499 -0.053,-2.251 h 48.552 V 206.061 H 843.774 596.586 L 781.976,28.765 c 22.73,-3.07 45.94,-4.65 69.51,-4.65 260.62,0 476.11,193.27 510.951,444.3 l -350.565,368.242 c 29.513,-50.006 46.898,-114.615 46.011,-185.044"
         id="path1358" /></clipPath><linearGradient
       x1="0"
       y1="0"
       x2="1"
       y2="0"
       gradientUnits="userSpaceOnUse"
       gradientTransform="matrix(438.93481,-393.52878,-393.52878,-438.93481,730.86243,581.59424)"
       spreadMethod="pad"
       id="linearGradient1368"><stop
         style="stop-opacity:1;stop-color:#231f20"
         offset="0"
         id="stop1362" /><stop
         style="stop-opacity:1;stop-color:#aaacaf"
         offset="0.97236538"
         id="stop1364" /><stop
         style="stop-opacity:1;stop-color:#aaacaf"
         offset="1"
         id="stop1366" /></linearGradient></defs><sodipodi:namedview
     pagecolor="#ffffff"
     bordercolor="#666666"
     borderopacity="1"
     objecttolerance="10"
     gridtolerance="10"
     guidetolerance="10"
     inkscape:pageopacity="0"
     inkscape:pageshadow="2"
     inkscape:window-width="1920"
     inkscape:window-height="1001"
     id="namedview1322"
     showgrid="false"
     inkscape:zoom="0.47460938"
     inkscape:cx="832.53828"
     inkscape:cy="687.84636"
     inkscape:window-x="-9"
     inkscape:window-y="-9"
     inkscape:window-maximized="1"
     inkscape:current-layer="g1328" /><g
     id="g1328"
     inkscape:groupmode="layer"
     inkscape:label="lock"
     transform="matrix(1.3333333,0,0,-1.3333333,-447.46172,1407.8464)"><g
       id="g1330"><g
         id="g1332"
         clip-path="url(#clipPath1336)"><g
           id="g1338"
           transform="translate(1002.6689,690.6533)"><path
             d="m 0,0 c -9.321,114.387 -65.587,189.556 -147.812,189.556 -82.226,0 -145.309,-79.188 -149.941,-189.556 -0.598,-14.232 0.496,-28.007 2.647,-41.292 H -158.895 -0.347 C 1.432,-27.93 1.152,-14.138 0,0"
             style="fill:#ff6510;fill-opacity:1;fill-rule:nonzero;stroke:none"
             id="path1340" /></g><g
           id="g1342"
           transform="translate(851.4863,1055.8848)"><path
             d="m 0,0 c -284.92,0 -515.89,-230.97 -515.89,-515.89 0,-261.339 194.33,-477.29 446.38,-511.23 l -185.39,177.296 v 443.301 h 55.216 c -0.003,1.927 0.004,3.858 0.029,5.795 1.983,157.449 94.488,284.286 206.616,283.309 61.975,-0.54 116.96,-40.024 153.425,-101.809 L 510.95,-587.47 c 3.25,23.401 4.93,47.29 4.93,71.58 C 515.88,-230.97 284.91,0 0,0"
             style="fill:#ff6510;fill-opacity:1;fill-rule:nonzero;stroke:none"
             id="path1344" /></g><g
           id="g1346"
           transform="translate(1057.8828,651.6128)"><path
             d="m 0,0 c -0.01,-0.753 -0.039,-1.499 -0.053,-2.251 h 48.552 v -443.301 h -262.607 -247.189 l 185.39,-177.296 c 22.73,-3.069 45.94,-4.65 69.511,-4.65 260.62,0 476.109,193.27 510.95,444.3 L -46.011,185.044 C -16.498,135.039 0.887,70.429 0,0"
             style="fill:#ff6510;fill-opacity:1;fill-rule:nonzero;stroke:none"
             id="path1348" /></g><g
           id="g1350"><g
             id="g1352" /><g
             id="g1382"><g
               clip-path="url(#clipPath1356)"
               opacity="0.309998"
               id="g1380"><g
                 id="g1378"><g
                   clip-path="url(#clipPath1360)"
                   id="g1376"><g
                     id="g1374"><g
                       id="g1372"><path
                         d="m 1057.883,651.613 c -0.01,-0.754 -0.039,-1.499 -0.053,-2.251 h 48.552 V 206.061 H 843.774 596.586 L 781.976,28.765 c 22.73,-3.07 45.94,-4.65 69.51,-4.65 260.62,0 476.11,193.27 510.951,444.3 l -350.565,368.242 c 29.513,-50.006 46.898,-114.615 46.011,-185.044"
                         style="fill:url(#linearGradient1368);stroke:none"
                         id="path1370" /></g></g></g></g></g></g></g><g
           id="g1384"
           transform="translate(688.9443,735.7646)"><path
             d="m 0,0 -7.936,2.885 c -6.203,2.256 -9.433,9.176 -7.177,15.378 L 8.692,83.739 c 2.255,6.203 9.175,9.433 15.378,7.178 l 7.936,-2.886 c 6.203,-2.255 9.433,-9.175 7.178,-15.378 L 15.378,7.177 C 13.123,0.975 6.203,-2.255 0,0 m 6.542,-71.512 c 0,-6.6 -5.4,-12 -12,-12 h -8.445 c -6.6,0 -12,5.4 -12,12 v 34.827 c 0,6.601 5.4,12 12,12 h 8.445 c 6.6,0 12,-5.399 12,-12 z m 9.43,26.401 c 4.632,110.367 67.715,189.555 149.94,189.555 82.226,0 138.491,-75.168 147.813,-189.555 1.152,-14.138 1.431,-27.931 -0.347,-41.292 h 55.508 c 0.013,0.752 0.043,1.498 0.052,2.251 0.887,70.429 -16.498,135.039 -46.01,185.044 -36.465,61.785 -91.45,101.269 -153.425,101.809 C 57.375,203.678 -35.13,76.841 -37.113,-80.607 c -0.025,-1.937 -0.032,-3.869 -0.029,-5.796 h 55.761 c -2.151,13.284 -3.245,27.059 -2.647,41.292"
             style="fill:#3a3d36;fill-opacity:1;fill-rule:nonzero;stroke:none"
             id="path1386" /></g><g
           id="g1388"
           transform="translate(617.105,412.3262)"><path
             d="m 0,0 c 0,6.601 5.4,12 12,12 h 10.693 c 6.6,0 12,-5.399 12,-12 v -173.748 c 0,-6.6 -5.4,-12 -12,-12 H 12 c -6.6,0 -12,5.4 -12,12 z m 1.125,146.012 c 0,6.6 5.399,12 12,12 h 8.444 c 6.6,0 12,-5.4 12,-12 V 65.826 c 0,-6.6 -5.4,-12 -12,-12 h -8.444 c -6.601,0 -12,5.4 -12,12 z m 225.544,-231.98 c -6.427,2.223 -11.083,8.332 -11.083,15.49 v 45.046 c -23.652,8.953 -40.475,31.803 -40.475,58.592 0,30.811 22.252,56.408 51.558,61.643 V 237.036 H 90.458 34.698 -20.519 v -443.302 h 247.188 z"
             style="fill:#facb03;fill-opacity:1;fill-rule:nonzero;stroke:none"
             id="path1390" /></g><g
           id="g1392"
           transform="translate(1002.3223,649.3618)"><path
             d="m 0,0 h -158.548 v -142.233 c 3.599,0.644 7.298,0.998 11.082,0.998 34.596,0 62.641,-28.046 62.641,-62.64 0,-26.79 -16.823,-49.639 -40.476,-58.592 v -45.046 c 0,-9.019 -7.378,-16.397 -16.396,-16.397 h -11.537 c -1.861,0 -3.644,0.329 -5.314,0.907 V -443.301 H 104.06 V 0 H 55.508 Z"
             style="fill:#e7b122;fill-opacity:1;fill-rule:nonzero;stroke:none"
             id="path1394" /></g><g
           id="g1396"
           transform="translate(849.0879,466.1523)"><path
             d="m 0,0 h 11.538 c 9.018,0 16.396,-7.379 16.396,-16.396 v -62.862 c 23.652,8.953 40.475,31.803 40.475,58.592 0,34.595 -28.045,62.641 -62.64,62.641 -3.784,0 -7.483,-0.355 -11.082,-0.998 -29.307,-5.235 -51.559,-30.832 -51.559,-61.643 0,-26.789 16.823,-49.639 40.476,-58.592 v 62.862 C -16.396,-7.379 -9.018,0 0,0"
             style="fill:#555551;fill-opacity:1;fill-rule:nonzero;stroke:none"
             id="path1398" /></g><g
           id="g1400"
           transform="translate(860.6255,325.4521)"><path
             d="m 0,0 c 9.018,0 16.396,7.378 16.396,16.396 v 45.046 62.862 C 16.396,133.321 9.018,140.7 0,140.7 h -11.538 c -9.018,0 -16.396,-7.379 -16.396,-16.396 V 61.442 16.396 c 0,-7.158 4.656,-13.267 11.083,-15.49 C -15.181,0.329 -13.398,0 -11.538,0 Z"
             style="fill:#555551;fill-opacity:1;fill-rule:nonzero;stroke:none"
             id="path1402" /></g><g
           id="g1404"
           transform="translate(629.105,226.5781)"><path
             d="m 0,0 h 10.693 c 6.6,0 12,5.4 12,12 v 173.748 c 0,6.601 -5.4,12 -12,12 H 0 c -6.6,0 -12,-5.399 -12,-12 V 12 C -12,5.4 -6.6,0 0,0"
             style="fill:#f4f4f4;fill-opacity:1;fill-rule:nonzero;stroke:none"
             id="path1406" /></g><g
           id="g1408"
           transform="translate(630.2295,466.1523)"><path
             d="m 0,0 h 8.444 c 6.6,0 12,5.399 12,12 v 80.186 c 0,6.6 -5.4,12 -12,12 H 0 c -6.6,0 -12,-5.4 -12,-12 V 12 C -12,5.399 -6.6,0 0,0"
             style="fill:#f4f4f4;fill-opacity:1;fill-rule:nonzero;stroke:none"
             id="path1410" /></g><g
           id="g1412"
           transform="translate(683.4858,711.0801)"><path
             d="m 0,0 h -8.445 c -6.599,0 -12,-5.4 -12,-12 v -34.827 c 0,-6.6 5.401,-12 12,-12 H 0 c 6.6,0 12,5.4 12,12 V -12 C 12,-5.4 6.6,0 0,0"
             style="fill:#a59d98;fill-opacity:1;fill-rule:nonzero;stroke:none"
             id="path1414" /></g><g
           id="g1416"
           transform="translate(720.9507,823.7959)"><path
             d="M 0,0 -7.936,2.885 C -14.139,5.141 -21.059,1.911 -23.314,-4.292 L -47.12,-69.768 c -2.255,-6.203 0.975,-13.123 7.178,-15.378 l 7.936,-2.885 c 6.203,-2.256 13.123,0.974 15.378,7.177 L 7.177,-15.378 C 9.433,-9.175 6.203,-2.255 0,0"
             style="fill:#a59d98;fill-opacity:1;fill-rule:nonzero;stroke:none"
             id="path1418" /></g></g></g></g></svg>
