<?xml version="1.0" encoding="UTF-8"?>
<svg viewBox="0 0 387.60001 732.23999" xmlns="http://www.w3.org/2000/svg" xmlns:xlink="http://www.w3.org/1999/xlink">
 <defs>
  <filter id="m">
   <feGaussianBlur stdDeviation="2.68914"/>
  </filter>
  <filter id="l" x="-.00633" y="-.11525" width="1.0127" height="1.2305">
   <feGaussianBlur stdDeviation=".87938"/>
  </filter>
  <filter id="k" x="-.01861" y="-.5526" width="1.0372" height="2.1052">
   <feGaussianBlur stdDeviation="2.65814"/>
  </filter>
  <linearGradient id="h" x2="0" y1="212.65" y2="259.05" gradientUnits="userSpaceOnUse">
   <stop stop-color="#262a2d" offset="0"/>
   <stop stop-color="#606567" offset=".06012"/>
   <stop stop-color="#262a2d" offset=".14895"/>
   <stop stop-color="#262a2d" offset="1"/>
  </linearGradient>
  <linearGradient id="a">
   <stop stop-color="#262a2d" offset="0"/>
   <stop stop-color="#606567" offset=".12389"/>
   <stop stop-color="#262a2d" offset=".2677"/>
   <stop stop-color="#262a2d" offset="1"/>
  </linearGradient>
  <linearGradient id="e" x1="258.98" x2="322.04" gradientUnits="userSpaceOnUse">
   <stop stop-color="#0b1417" offset="0"/>
   <stop stop-color="#575d60" offset=".25526"/>
   <stop stop-color="#575d60" offset=".69822"/>
   <stop stop-color="#0b1417" offset="1"/>
  </linearGradient>
  <linearGradient id="d" x2="0" y1="67.457" y2="80.083" gradientUnits="userSpaceOnUse">
   <stop stop-color="#151515" offset="0"/>
   <stop stop-color="#151515" stop-opacity="0" offset="1"/>
  </linearGradient>
  <linearGradient id="c" x2="0" y1="79.445" y2="67.387" gradientUnits="userSpaceOnUse">
   <stop stop-color="#9c9c9c" offset="0"/>
   <stop stop-color="#242424" stop-opacity=".68908" offset=".20755"/>
   <stop stop-color="#242424" stop-opacity=".57983" offset=".61491"/>
   <stop stop-color="#242424" offset="1"/>
  </linearGradient>
  <linearGradient id="i" x2="0" y1="625.3" y2="695.1" gradientUnits="userSpaceOnUse">
   <stop stop-color="#151515" offset="0"/>
   <stop stop-color="#151515" offset=".60526"/>
   <stop stop-color="#525252" offset=".81579"/>
   <stop stop-color="#919192" offset="1"/>
  </linearGradient>
  <linearGradient id="b" x1="306.23" x2="147.12" y1="72.233" y2="547.34" gradientUnits="userSpaceOnUse">
   <stop stop-color="#2b2f36" offset="0"/>
   <stop offset="1"/>
  </linearGradient>
  <linearGradient id="j" x1="245.63" x2="93.576" y1="148.94" y2="587.54" gradientUnits="userSpaceOnUse">
   <stop stop-color="#282c32" offset="0"/>
   <stop offset="1"/>
  </linearGradient>
  <linearGradient id="g" x2="0" y1="132.65" y2="164.4" gradientUnits="userSpaceOnUse" xlink:href="#a"/>
  <linearGradient id="f" x2="0" y1="76.651" y2="108.4" gradientUnits="userSpaceOnUse" xlink:href="#a"/>
 </defs>
 <path transform="matrix(.89937 0 0 .42998 19.606 414.5)" d="m131.59 720.39h126.48a108.2 5.7723 0 0 1 108.2 5.7723 108.2 5.7723 0 0 1 -108.2 5.7723h-126.48a108.2 5.7723 0 0 1 -108.2 -5.7723 108.2 5.7723 0 0 1 108.2 -5.7723" fill="#a9a9a9" filter="url(#k)"/>
 <path d="m71.437 4.2812c-37.068 0-66.906 29.839-66.906 66.906v589.84c0 37.068 29.839 66.906 66.906 66.906h48.875c1.8161-0.87752 4.123-1.4062 6.625-1.4062h133.75c2.5021 0 4.7777 0.52873 6.5938 1.4062h50.969c37.068 0 66.906-29.839 66.906-66.906v-589.84c0-37.068-29.839-66.906-66.906-66.906h-214.97c-4.5648 1.228-9.8398 1.9375-15.469 1.9375s-10.904-0.70952-15.469-1.9375h-0.9063z" fill="#e6e6e6"/>
 <path d="m71.079 22.625h247.52a45.663 45.663 0 0 1 45.663 45.663v595.65a45.663 45.663 0 0 1 -45.663 45.663h-247.52a45.663 45.663 0 0 1 -45.663 -45.663v-595.65a45.663 45.663 0 0 1 45.663 -45.663" fill="url(#b)"/>
 <path d="m70.687 7.1875c-34.734 0-62.719 27.984-62.719 62.719v592.44c0 34.734 27.984 62.688 62.719 62.688h248.31c34.734 0 62.688-27.953 62.688-62.688v-592.44c0-34.734-27.953-62.719-62.688-62.719h-248.31zm3.25 9.4062h241.81c33.824 0 61.062 27.239 61.062 61.062v576.91c0 33.824-27.239 61.062-61.062 61.062h-241.81c-33.824 0-61.062-27.239-61.062-61.062v-576.91c0-33.824 27.239-61.062 61.062-61.062z"/>
 <path d="m73.406 6.6562c-36.475 0-65.844 29.839-65.844 66.906v2c0-37.068 29.368-66.906 65.844-66.906h242.88c36.475 0 65.844 29.839 65.844 66.906v-2c0-37.068-29.368-66.906-65.844-66.906h-242.88z"/>
 <path d="m70.625 18.031c-28.238 0-50.969 22.762-50.969 51v594.19c0 28.238 22.731 50.969 50.969 50.969h248.44c28.238 0 50.969-22.731 50.969-50.969v-594.19c0-28.238-22.731-51-50.969-51h-248.44zm0.4688 4.5938h247.5c25.297 0 45.656 20.359 45.656 45.656v595.66c0 25.297-20.359 45.656-45.656 45.656h-247.5c-25.297 0-45.688-20.359-45.688-45.656v-595.66c0-25.297 20.39-45.656 45.688-45.656z" fill="#e7ebee"/>
 <path d="m73.406 8.6562c-17.565 0-33.468 6.9353-45.25 18.25 11.145-7.192 24.677-11.406 39.312-11.406h254.72c14.674 0 28.244 4.2417 39.406 11.469-11.788-11.351-27.716-18.312-45.312-18.312h-242.88z" fill="#f5f8fb"/>
 <path d="m67.469 15.5c-18.606 0-35.425 6.8093-47.812 17.906-7.3414 10.268-11.688 22.86-11.688 36.5v68.156l1.875-9.0312v-47.406c0-35.145 29-63.438 65.031-63.438h239.94c36.031 0 65.031 28.292 65.031 63.438v47.406l1.8437 8.875v-68c0-13.552-4.2449-26.081-11.5-36.312-12.405-11.199-29.3-18.094-48-18.094h-254.72z" fill="#2a2e34"/>
 <path d="m34.321 122.94h321.36a3.6735 3.6735 0 0 1 3.6735 3.6735v481.32a3.6735 3.6735 0 0 1 -3.6735 3.6735h-321.36a3.6735 3.6735 0 0 1 -3.6735 -3.6735v-481.32a3.6735 3.6735 0 0 1 3.6735 -3.6735" fill="#505157"/>
 <path d="m35 128.24h320v480h-320z" fill="url(#j)"/>
 <path d="m7.5625 659.16v2c0 37.068 29.368 66.906 65.844 66.906h46.656c1.853-0.95198 4.2575-1.5312 6.875-1.5312h133.75c2.6176 0 4.9908 0.57927 6.8438 1.5312h48.75c36.475 0 65.844-29.839 65.844-66.906v-2c0 37.068-29.368 66.906-65.844 66.906h-242.88c-36.475 0-65.844-29.839-65.844-66.906z" fill="#2e3336"/>
 <path d="m73.406 726.06c-17.565 0-33.468-6.9353-45.25-18.25 11.145 7.192 24.677 11.406 39.312 11.406h254.72c14.674 0 28.244-4.2417 39.406-11.469-11.788 11.351-27.716 18.312-45.312 18.312h-242.88z" fill="#dee1e4"/>
 <path d="m67.469 719.22c-18.606 0-35.425-6.8093-47.812-17.906-7.3414-10.268-11.688-22.86-11.688-36.5v-68.156l1.875 9.0312v47.406c0 35.145 29 63.438 65.031 63.438h239.94c36.031 0 65.031-28.292 65.031-63.438v-47.406l1.8437-8.875v68c0 13.552-4.2449 26.081-11.5 36.312-12.405 11.199-29.3 18.094-48 18.094h-254.72z" fill="#1e2325"/>
 <path d="m71.187 13.75c-13.93 0.38745-26.668 5.3597-36.781 13.469-4.073 2.5435-7.3129 5.9385-9.875 10-8.2315 10.466-15.156 23.656-15.156 38.062v581.69c0 14.406 6.9248 27.596 15.156 38.062 2.5621 4.0615 5.802 7.4565 9.875 10 10.113 8.1091 22.852 13.081 36.781 13.469-8.0596-0.39491-16.629-3.5225-24.562-8.9062 2.3143 0.41876 4.7861 0.6724 7.4375 0.75-3.3995-0.18151-6.5189-0.92384-9.375-2.125-6.1162-4.5047-11.772-10.377-16.406-17.438-5.4264-11.75-11.969-28.24-11.969-48v-553.31c0-19.76 6.5424-36.25 11.969-48 4.6345-7.0609 10.29-12.933 16.406-17.438 2.8561-1.2012 5.9755-1.9435 9.375-2.125-2.6514 0.07759-5.1232 0.33124-7.4375 0.75 7.9332-5.3838 16.503-8.5113 24.562-8.9062zm254.09 0.59375c8.2118 1.2498 16.731 4.4037 24.281 10.062-3.2815-1.2231-6.992-2.0119-11.156-2.3438 6.0446 0.57431 11.166 2.4472 15.406 5.9062 1.7508 1.6351 3.4144 3.4409 5 5.4062 7.1012 10.088 14.562 27.675 14.562 56.094v553.31c0 28.419-7.4613 46.006-14.562 56.094-1.5856 1.9653-3.2492 3.7712-5 5.4062-4.2404 3.4591-9.3616 5.3319-15.406 5.9062 4.1642-0.33186 7.8747-1.1206 11.156-2.3438-7.5504 5.6588-16.069 8.8127-24.281 10.062 11.272-1.5516 21.56-6.1032 30-12.875 4.0236-2.5142 7.2362-5.8447 9.7812-9.8438 8.2894-10.487 15.219-23.75 15.219-38.219v-581.69c0-14.468-6.9294-27.731-15.219-38.219-2.545-3.9991-5.7576-7.3296-9.7812-9.8438-8.4398-6.7718-18.728-11.323-30-12.875z" fill="#2a2e34" filter="url(#m)"/>
 <path transform="translate(-1.3371e-5 -1.5452e-6)" d="m229.39 660.2c0 19.274-15.624 34.898-34.898 34.898s-34.898-15.624-34.898-34.898 15.624-34.898 34.898-34.898 34.898 15.624 34.898 34.898z" fill="url(#i)"/>
 <path d="m228.16 660.2c0-18.597-15.076-33.673-33.674-33.673s-33.673 15.076-33.673 33.673c0 3.2189 0.4516 6.3323 1.295 9.2803 25.785 9.9332 44.93 9.7355 64.772-0.0524 0.8338-2.9325 1.2801-6.0281 1.2801-9.2279z" fill="#070707"/>
 <path d="m187.75 647.34c-2.9396 0-5.3125 2.3729-5.3125 5.3125v13.875c0 2.9396 2.3729 5.3125 5.3125 5.3125h13.875c2.9396 0 5.3125-2.3729 5.3125-5.3125v-13.875c0-2.9396-2.3729-5.3125-5.3125-5.3125h-13.875zm0.4688 2.0312h12.938c2.0728 0 3.75 1.6772 3.75 3.75v12.938c0 2.0728-1.6772 3.7188-3.75 3.7188h-12.938c-2.0728 0-3.7188-1.646-3.7188-3.7188v-12.938c0-2.0728 1.646-3.75 3.7188-3.75z" fill="#ccced1"/>
 <path d="m168.06 67.392h53.878a7.551 6.6852 0 0 1 7.551 6.6852 7.551 6.6852 0 0 1 -7.551 6.6852h-53.878a7.551 6.6852 0 0 1 -7.551 -6.6852 7.551 6.6852 0 0 1 7.551 -6.6852" fill="url(#c)"/>
 <path d="m167.65 70.199h54.694a3.8776 3.8776 0 0 1 3.8776 3.8776 3.8776 3.8776 0 0 1 -3.8776 3.8776h-54.694a3.8776 3.8776 0 0 1 -3.8776 -3.8776 3.8776 3.8776 0 0 1 3.8776 -3.8776" fill="url(#d)"/>
 <path d="m167.04 71.934h55.918a2.5 2.5 0 0 1 2.5 2.5 2.5 2.5 0 0 1 -2.5 2.5h-55.918a2.5 2.5 0 0 1 -2.5 -2.5 2.5 2.5 0 0 1 2.5 -2.5" fill="#343434"/>
 <path d="m260.41 2.0359h60.204c0.7914 0 1.4285 0.63714 1.4285 1.4286v1.6326h-63.061v-1.6326c0-0.79143 0.6372-1.4286 1.4286-1.4286z" fill="url(#e)"/>
 <path d="m3.75199,76.65099h1.3191v31.74766h-1.3191c-.4796,0-.8658-.38617-.8658-.86585v-30.01597c0-.47968.3862-.86584.8658-.86584z" fill="url(#f)"/>
 <path d="m3.752,132.651h1.3191v46.40071h-1.3191c-.4796,0-.8658-8.38617-.8658-8.86585v-36.66902c0-.47968.3862-.86584.8658-.86584z" fill="url(#g)"/>
 <path d="m3.752,259.05171h1.3191v-46.40071h-1.3191c-.4796,0-.8658,8.38617-.8658,8.86585v36.66902c0,.47968.3862.86584.8658.86584z" fill="url(#h)"/>
 <path d="m73.406 726.06c-17.565 0-33.468-6.9353-45.25-18.25 11.145 7.192 24.677 14.59 39.312 14.59h254.72c14.674 0 28.244-7.4254 39.406-14.652-11.788 11.351-27.716 18.312-45.312 18.312h-242.88z" fill="#3e4246" filter="url(#l)"/>
 <path d="m73.406 726.06c-17.565 0-33.468-6.9353-45.25-18.25 11.145 7.192 24.677 16.59 39.312 16.59h254.72c14.674 0 28.244-9.4254 39.406-16.652-11.788 11.351-27.716 18.312-45.312 18.312h-242.88z" fill="#3e4246"/>
 <path d="m164.69384,71.83185a.20408,.20408 0 0,1 .20408.20408v4.4898a.20408,.20408 0 0,1 -.20408.20408 .20408,.20408 0 0,1 -.20408-.20408v-4.4898a.20408,.20408 0 0,1 .20408-.20408" fill="#2d2d2d"/>
</svg>
