<?xml version="1.0" encoding="UTF-8" standalone="no"?>
<svg
   xmlns:dc="http://purl.org/dc/elements/1.1/"
   xmlns:cc="http://creativecommons.org/ns#"
   xmlns:rdf="http://www.w3.org/1999/02/22-rdf-syntax-ns#"
   xmlns:svg="http://www.w3.org/2000/svg"
   xmlns="http://www.w3.org/2000/svg"
   xmlns:xlink="http://www.w3.org/1999/xlink"
   xmlns:sodipodi="http://sodipodi.sourceforge.net/DTD/sodipodi-0.dtd"
   xmlns:inkscape="http://www.inkscape.org/namespaces/inkscape"
   viewBox="0 0 387.60001 732.23999"
   version="1.1"
   id="svg1093"
   sodipodi:docname="logo-homepage.svg"
   inkscape:version="1.0.2 (e86c870879, 2021-01-15, custom)">
  <metadata
     id="metadata1097">
    <rdf:RDF>
      <cc:Work
         rdf:about="">
        <dc:format>image/svg+xml</dc:format>
        <dc:type
           rdf:resource="http://purl.org/dc/dcmitype/StillImage" />
        <dc:title />
      </cc:Work>
    </rdf:RDF>
  </metadata>
  <sodipodi:namedview
     pagecolor="#ffffff"
     bordercolor="#666666"
     borderopacity="1"
     objecttolerance="10"
     gridtolerance="10"
     guidetolerance="10"
     inkscape:pageopacity="0"
     inkscape:pageshadow="2"
     inkscape:window-width="1920"
     inkscape:window-height="1001"
     id="namedview1095"
     showgrid="false"
     inkscape:zoom="1.0939037"
     inkscape:cx="99.184725"
     inkscape:cy="366.12"
     inkscape:window-x="-9"
     inkscape:window-y="-9"
     inkscape:window-maximized="1"
     inkscape:current-layer="svg1093"
     inkscape:document-rotation="0" />
  <defs
     id="defs1037">
    <filter
       id="m">
      <feGaussianBlur
         stdDeviation="2.68914"
         id="feGaussianBlur966" />
    </filter>
    <filter
       id="l"
       x="-.00633"
       y="-.11525"
       width="1.0127"
       height="1.2305">
      <feGaussianBlur
         stdDeviation=".87938"
         id="feGaussianBlur969" />
    </filter>
    <filter
       id="k"
       x="-.01861"
       y="-.5526"
       width="1.0372"
       height="2.1052">
      <feGaussianBlur
         stdDeviation="2.65814"
         id="feGaussianBlur972" />
    </filter>
    <linearGradient
       id="h"
       x2="0"
       y1="212.65"
       y2="259.05"
       gradientUnits="userSpaceOnUse">
      <stop
         stop-color="#262a2d"
         offset="0"
         id="stop975" />
      <stop
         stop-color="#606567"
         offset=".06012"
         id="stop977" />
      <stop
         stop-color="#262a2d"
         offset=".14895"
         id="stop979" />
      <stop
         stop-color="#262a2d"
         offset="1"
         id="stop981" />
    </linearGradient>
    <linearGradient
       id="a">
      <stop
         stop-color="#262a2d"
         offset="0"
         id="stop984" />
      <stop
         stop-color="#606567"
         offset=".12389"
         id="stop986" />
      <stop
         stop-color="#262a2d"
         offset=".2677"
         id="stop988" />
      <stop
         stop-color="#262a2d"
         offset="1"
         id="stop990" />
    </linearGradient>
    <linearGradient
       id="e"
       x1="258.98"
       x2="322.04"
       gradientUnits="userSpaceOnUse">
      <stop
         stop-color="#0b1417"
         offset="0"
         id="stop993" />
      <stop
         stop-color="#575d60"
         offset=".25526"
         id="stop995" />
      <stop
         stop-color="#575d60"
         offset=".69822"
         id="stop997" />
      <stop
         stop-color="#0b1417"
         offset="1"
         id="stop999" />
    </linearGradient>
    <linearGradient
       id="d"
       x2="0"
       y1="67.457"
       y2="80.083"
       gradientUnits="userSpaceOnUse">
      <stop
         stop-color="#151515"
         offset="0"
         id="stop1002" />
      <stop
         stop-color="#151515"
         stop-opacity="0"
         offset="1"
         id="stop1004" />
    </linearGradient>
    <linearGradient
       id="c"
       x2="0"
       y1="79.445"
       y2="67.387"
       gradientUnits="userSpaceOnUse">
      <stop
         stop-color="#9c9c9c"
         offset="0"
         id="stop1007" />
      <stop
         stop-color="#242424"
         stop-opacity=".68908"
         offset=".20755"
         id="stop1009" />
      <stop
         stop-color="#242424"
         stop-opacity=".57983"
         offset=".61491"
         id="stop1011" />
      <stop
         stop-color="#242424"
         offset="1"
         id="stop1013" />
    </linearGradient>
    <linearGradient
       id="i"
       x2="0"
       y1="625.3"
       y2="695.1"
       gradientUnits="userSpaceOnUse">
      <stop
         stop-color="#151515"
         offset="0"
         id="stop1016" />
      <stop
         stop-color="#151515"
         offset=".60526"
         id="stop1018" />
      <stop
         stop-color="#525252"
         offset=".81579"
         id="stop1020" />
      <stop
         stop-color="#919192"
         offset="1"
         id="stop1022" />
    </linearGradient>
    <linearGradient
       id="b"
       x1="306.23"
       x2="147.12"
       y1="72.233"
       y2="547.34"
       gradientUnits="userSpaceOnUse">
      <stop
         stop-color="#2b2f36"
         offset="0"
         id="stop1025" />
      <stop
         offset="1"
         id="stop1027" />
    </linearGradient>
    <linearGradient
       id="j"
       x1="245.63"
       x2="93.576"
       y1="148.94"
       y2="587.54"
       gradientUnits="userSpaceOnUse">
      <stop
         stop-color="#282c32"
         offset="0"
         id="stop1030" />
      <stop
         offset="1"
         id="stop1032" />
    </linearGradient>
    <linearGradient
       id="g"
       x2="0"
       y1="132.65"
       y2="164.4"
       gradientUnits="userSpaceOnUse"
       xlink:href="#a" />
    <linearGradient
       id="f"
       x2="0"
       y1="76.651"
       y2="108.4"
       gradientUnits="userSpaceOnUse"
       xlink:href="#a" />
    <clipPath
       clipPathUnits="userSpaceOnUse"
       id="clipPath1115">
      <path
         d="M 0,1080 H 1920 V 0 H 0 Z"
         id="path1113" />
    </clipPath>
    <clipPath
       clipPathUnits="userSpaceOnUse"
       id="clipPath1135">
      <path
         d="M 596.586,836.657 H 1362.44 V 24.115 H 596.586 Z"
         id="path1133" />
    </clipPath>
    <clipPath
       clipPathUnits="userSpaceOnUse"
       id="clipPath1139">
      <path
         d="m 1057.883,651.613 c -0.01,-0.754 -0.039,-1.499 -0.053,-2.251 h 48.552 V 206.061 H 843.774 596.586 L 781.976,28.765 c 22.73,-3.07 45.94,-4.65 69.51,-4.65 260.62,0 476.11,193.27 510.951,444.3 l -350.565,368.242 c 29.513,-50.006 46.898,-114.615 46.011,-185.044"
         id="path1137" />
    </clipPath>
    <linearGradient
       x1="0"
       y1="0"
       x2="1"
       y2="0"
       gradientUnits="userSpaceOnUse"
       gradientTransform="matrix(438.93481,-393.52878,-393.52878,-438.93481,730.86243,581.59424)"
       spreadMethod="pad"
       id="linearGradient1147">
      <stop
         style="stop-opacity:1;stop-color:#231f20"
         offset="0"
         id="stop1141" />
      <stop
         style="stop-opacity:1;stop-color:#aaacaf"
         offset="0.97236538"
         id="stop1143" />
      <stop
         style="stop-opacity:1;stop-color:#aaacaf"
         offset="1"
         id="stop1145" />
    </linearGradient>
  </defs>
  <path
     transform="matrix(.89937 0 0 .42998 19.606 414.5)"
     d="m131.59 720.39h126.48a108.2 5.7723 0 0 1 108.2 5.7723 108.2 5.7723 0 0 1 -108.2 5.7723h-126.48a108.2 5.7723 0 0 1 -108.2 -5.7723 108.2 5.7723 0 0 1 108.2 -5.7723"
     fill="#a9a9a9"
     filter="url(#k)"
     id="path1039" />
  <path
     d="m71.437 4.2812c-37.068 0-66.906 29.839-66.906 66.906v589.84c0 37.068 29.839 66.906 66.906 66.906h48.875c1.8161-0.87752 4.123-1.4062 6.625-1.4062h133.75c2.5021 0 4.7777 0.52873 6.5938 1.4062h50.969c37.068 0 66.906-29.839 66.906-66.906v-589.84c0-37.068-29.839-66.906-66.906-66.906h-214.97c-4.5648 1.228-9.8398 1.9375-15.469 1.9375s-10.904-0.70952-15.469-1.9375h-0.9063z"
     fill="#e6e6e6"
     id="path1041" />
  <path
     d="m71.079 22.625h247.52a45.663 45.663 0 0 1 45.663 45.663v595.65a45.663 45.663 0 0 1 -45.663 45.663h-247.52a45.663 45.663 0 0 1 -45.663 -45.663v-595.65a45.663 45.663 0 0 1 45.663 -45.663"
     fill="url(#b)"
     id="path1043" />
  <path
     d="m70.687 7.1875c-34.734 0-62.719 27.984-62.719 62.719v592.44c0 34.734 27.984 62.688 62.719 62.688h248.31c34.734 0 62.688-27.953 62.688-62.688v-592.44c0-34.734-27.953-62.719-62.688-62.719h-248.31zm3.25 9.4062h241.81c33.824 0 61.062 27.239 61.062 61.062v576.91c0 33.824-27.239 61.062-61.062 61.062h-241.81c-33.824 0-61.062-27.239-61.062-61.062v-576.91c0-33.824 27.239-61.062 61.062-61.062z"
     id="path1045" />
  <path
     d="m73.406 6.6562c-36.475 0-65.844 29.839-65.844 66.906v2c0-37.068 29.368-66.906 65.844-66.906h242.88c36.475 0 65.844 29.839 65.844 66.906v-2c0-37.068-29.368-66.906-65.844-66.906h-242.88z"
     id="path1047" />
  <path
     d="m70.625 18.031c-28.238 0-50.969 22.762-50.969 51v594.19c0 28.238 22.731 50.969 50.969 50.969h248.44c28.238 0 50.969-22.731 50.969-50.969v-594.19c0-28.238-22.731-51-50.969-51h-248.44zm0.4688 4.5938h247.5c25.297 0 45.656 20.359 45.656 45.656v595.66c0 25.297-20.359 45.656-45.656 45.656h-247.5c-25.297 0-45.688-20.359-45.688-45.656v-595.66c0-25.297 20.39-45.656 45.688-45.656z"
     fill="#e7ebee"
     id="path1049" />
  <path
     d="m73.406 8.6562c-17.565 0-33.468 6.9353-45.25 18.25 11.145-7.192 24.677-11.406 39.312-11.406h254.72c14.674 0 28.244 4.2417 39.406 11.469-11.788-11.351-27.716-18.312-45.312-18.312h-242.88z"
     fill="#f5f8fb"
     id="path1051" />
  <path
     d="m67.469 15.5c-18.606 0-35.425 6.8093-47.812 17.906-7.3414 10.268-11.688 22.86-11.688 36.5v68.156l1.875-9.0312v-47.406c0-35.145 29-63.438 65.031-63.438h239.94c36.031 0 65.031 28.292 65.031 63.438v47.406l1.8437 8.875v-68c0-13.552-4.2449-26.081-11.5-36.312-12.405-11.199-29.3-18.094-48-18.094h-254.72z"
     fill="#2a2e34"
     id="path1053" />
  <path
     d="m34.321 122.94h321.36a3.6735 3.6735 0 0 1 3.6735 3.6735v481.32a3.6735 3.6735 0 0 1 -3.6735 3.6735h-321.36a3.6735 3.6735 0 0 1 -3.6735 -3.6735v-481.32a3.6735 3.6735 0 0 1 3.6735 -3.6735"
     fill="#505157"
     id="path1055" />
  <path
     d="m35 128.24h320v480h-320z"
     fill="url(#j)"
     id="path1057" />
  <path
     d="m7.5625 659.16v2c0 37.068 29.368 66.906 65.844 66.906h46.656c1.853-0.95198 4.2575-1.5312 6.875-1.5312h133.75c2.6176 0 4.9908 0.57927 6.8438 1.5312h48.75c36.475 0 65.844-29.839 65.844-66.906v-2c0 37.068-29.368 66.906-65.844 66.906h-242.88c-36.475 0-65.844-29.839-65.844-66.906z"
     fill="#2e3336"
     id="path1059" />
  <path
     d="m73.406 726.06c-17.565 0-33.468-6.9353-45.25-18.25 11.145 7.192 24.677 11.406 39.312 11.406h254.72c14.674 0 28.244-4.2417 39.406-11.469-11.788 11.351-27.716 18.312-45.312 18.312h-242.88z"
     fill="#dee1e4"
     id="path1061" />
  <path
     d="m67.469 719.22c-18.606 0-35.425-6.8093-47.812-17.906-7.3414-10.268-11.688-22.86-11.688-36.5v-68.156l1.875 9.0312v47.406c0 35.145 29 63.438 65.031 63.438h239.94c36.031 0 65.031-28.292 65.031-63.438v-47.406l1.8437-8.875v68c0 13.552-4.2449 26.081-11.5 36.312-12.405 11.199-29.3 18.094-48 18.094h-254.72z"
     fill="#1e2325"
     id="path1063" />
  <path
     d="m71.187 13.75c-13.93 0.38745-26.668 5.3597-36.781 13.469-4.073 2.5435-7.3129 5.9385-9.875 10-8.2315 10.466-15.156 23.656-15.156 38.062v581.69c0 14.406 6.9248 27.596 15.156 38.062 2.5621 4.0615 5.802 7.4565 9.875 10 10.113 8.1091 22.852 13.081 36.781 13.469-8.0596-0.39491-16.629-3.5225-24.562-8.9062 2.3143 0.41876 4.7861 0.6724 7.4375 0.75-3.3995-0.18151-6.5189-0.92384-9.375-2.125-6.1162-4.5047-11.772-10.377-16.406-17.438-5.4264-11.75-11.969-28.24-11.969-48v-553.31c0-19.76 6.5424-36.25 11.969-48 4.6345-7.0609 10.29-12.933 16.406-17.438 2.8561-1.2012 5.9755-1.9435 9.375-2.125-2.6514 0.07759-5.1232 0.33124-7.4375 0.75 7.9332-5.3838 16.503-8.5113 24.562-8.9062zm254.09 0.59375c8.2118 1.2498 16.731 4.4037 24.281 10.062-3.2815-1.2231-6.992-2.0119-11.156-2.3438 6.0446 0.57431 11.166 2.4472 15.406 5.9062 1.7508 1.6351 3.4144 3.4409 5 5.4062 7.1012 10.088 14.562 27.675 14.562 56.094v553.31c0 28.419-7.4613 46.006-14.562 56.094-1.5856 1.9653-3.2492 3.7712-5 5.4062-4.2404 3.4591-9.3616 5.3319-15.406 5.9062 4.1642-0.33186 7.8747-1.1206 11.156-2.3438-7.5504 5.6588-16.069 8.8127-24.281 10.062 11.272-1.5516 21.56-6.1032 30-12.875 4.0236-2.5142 7.2362-5.8447 9.7812-9.8438 8.2894-10.487 15.219-23.75 15.219-38.219v-581.69c0-14.468-6.9294-27.731-15.219-38.219-2.545-3.9991-5.7576-7.3296-9.7812-9.8438-8.4398-6.7718-18.728-11.323-30-12.875z"
     fill="#2a2e34"
     filter="url(#m)"
     id="path1065" />
  <path
     transform="translate(-1.3371e-5 -1.5452e-6)"
     d="m229.39 660.2c0 19.274-15.624 34.898-34.898 34.898s-34.898-15.624-34.898-34.898 15.624-34.898 34.898-34.898 34.898 15.624 34.898 34.898z"
     fill="url(#i)"
     id="path1067" />
  <path
     d="m228.16 660.2c0-18.597-15.076-33.673-33.674-33.673s-33.673 15.076-33.673 33.673c0 3.2189 0.4516 6.3323 1.295 9.2803 25.785 9.9332 44.93 9.7355 64.772-0.0524 0.8338-2.9325 1.2801-6.0281 1.2801-9.2279z"
     fill="#070707"
     id="path1069" />
  <path
     d="m187.75 647.34c-2.9396 0-5.3125 2.3729-5.3125 5.3125v13.875c0 2.9396 2.3729 5.3125 5.3125 5.3125h13.875c2.9396 0 5.3125-2.3729 5.3125-5.3125v-13.875c0-2.9396-2.3729-5.3125-5.3125-5.3125h-13.875zm0.4688 2.0312h12.938c2.0728 0 3.75 1.6772 3.75 3.75v12.938c0 2.0728-1.6772 3.7188-3.75 3.7188h-12.938c-2.0728 0-3.7188-1.646-3.7188-3.7188v-12.938c0-2.0728 1.646-3.75 3.7188-3.75z"
     fill="#ccced1"
     id="path1071" />
  <path
     d="m168.06 67.392h53.878a7.551 6.6852 0 0 1 7.551 6.6852 7.551 6.6852 0 0 1 -7.551 6.6852h-53.878a7.551 6.6852 0 0 1 -7.551 -6.6852 7.551 6.6852 0 0 1 7.551 -6.6852"
     fill="url(#c)"
     id="path1073" />
  <path
     d="m167.65 70.199h54.694a3.8776 3.8776 0 0 1 3.8776 3.8776 3.8776 3.8776 0 0 1 -3.8776 3.8776h-54.694a3.8776 3.8776 0 0 1 -3.8776 -3.8776 3.8776 3.8776 0 0 1 3.8776 -3.8776"
     fill="url(#d)"
     id="path1075" />
  <path
     d="m167.04 71.934h55.918a2.5 2.5 0 0 1 2.5 2.5 2.5 2.5 0 0 1 -2.5 2.5h-55.918a2.5 2.5 0 0 1 -2.5 -2.5 2.5 2.5 0 0 1 2.5 -2.5"
     fill="#343434"
     id="path1077" />
  <path
     d="m260.41 2.0359h60.204c0.7914 0 1.4285 0.63714 1.4285 1.4286v1.6326h-63.061v-1.6326c0-0.79143 0.6372-1.4286 1.4286-1.4286z"
     fill="url(#e)"
     id="path1079" />
  <path
     d="m3.75199,76.65099h1.3191v31.74766h-1.3191c-.4796,0-.8658-.38617-.8658-.86585v-30.01597c0-.47968.3862-.86584.8658-.86584z"
     fill="url(#f)"
     id="path1081" />
  <path
     d="m3.752,132.651h1.3191v46.40071h-1.3191c-.4796,0-.8658-8.38617-.8658-8.86585v-36.66902c0-.47968.3862-.86584.8658-.86584z"
     fill="url(#g)"
     id="path1083" />
  <path
     d="m3.752,259.05171h1.3191v-46.40071h-1.3191c-.4796,0-.8658,8.38617-.8658,8.86585v36.66902c0,.47968.3862.86584.8658.86584z"
     fill="url(#h)"
     id="path1085" />
  <path
     d="m73.406 726.06c-17.565 0-33.468-6.9353-45.25-18.25 11.145 7.192 24.677 14.59 39.312 14.59h254.72c14.674 0 28.244-7.4254 39.406-14.652-11.788 11.351-27.716 18.312-45.312 18.312h-242.88z"
     fill="#3e4246"
     filter="url(#l)"
     id="path1087" />
  <path
     d="m73.406 726.06c-17.565 0-33.468-6.9353-45.25-18.25 11.145 7.192 24.677 16.59 39.312 16.59h254.72c14.674 0 28.244-9.4254 39.406-16.652-11.788 11.351-27.716 18.312-45.312 18.312h-242.88z"
     fill="#3e4246"
     id="path1089" />
  <path
     d="m164.69384,71.83185a.20408,.20408 0 0,1 .20408.20408v4.4898a.20408,.20408 0 0,1 -.20408.20408 .20408,.20408 0 0,1 -.20408-.20408v-4.4898a.20408,.20408 0 0,1 .20408-.20408"
     fill="#2d2d2d"
     id="path1091" />
  <g
     id="g1111"
     clip-path="url(#clipPath1115)"
     transform="matrix(0.23379639,0,0,-0.23379639,-4.210171,442.44483)">
    <g
       id="g1117"
       transform="translate(1002.6689,690.6533)">
      <path
         d="m 0,0 c -9.321,114.387 -65.587,189.556 -147.812,189.556 -82.226,0 -145.309,-79.188 -149.941,-189.556 -0.598,-14.232 0.496,-28.007 2.647,-41.292 H -158.895 -0.347 C 1.432,-27.93 1.152,-14.138 0,0"
         style="fill:#ff6510;fill-opacity:1;fill-rule:nonzero;stroke:none"
         id="path1119" />
    </g>
    <g
       id="g1121"
       transform="translate(851.4863,1055.8848)">
      <path
         d="m 0,0 c -284.92,0 -515.89,-230.97 -515.89,-515.89 0,-261.339 194.33,-477.29 446.38,-511.23 l -185.39,177.296 v 443.301 h 55.216 c -0.003,1.927 0.004,3.858 0.029,5.795 1.983,157.449 94.488,284.286 206.616,283.309 61.975,-0.54 116.96,-40.024 153.425,-101.809 L 510.95,-587.47 c 3.25,23.401 4.93,47.29 4.93,71.58 C 515.88,-230.97 284.91,0 0,0"
         style="fill:#ff6510;fill-opacity:1;fill-rule:nonzero;stroke:none"
         id="path1123" />
    </g>
    <g
       id="g1125"
       transform="translate(1057.8828,651.6128)">
      <path
         d="m 0,0 c -0.01,-0.753 -0.039,-1.499 -0.053,-2.251 h 48.552 v -443.301 h -262.607 -247.189 l 185.39,-177.296 c 22.73,-3.069 45.94,-4.65 69.511,-4.65 260.62,0 476.109,193.27 510.95,444.3 L -46.011,185.044 C -16.498,135.039 0.887,70.429 0,0"
         style="fill:#ff6510;fill-opacity:1;fill-rule:nonzero;stroke:none"
         id="path1127" />
    </g>
    <g
       id="g1129">
      <g
         id="g1131" />
      <g
         id="g1161">
        <g
           clip-path="url(#clipPath1135)"
           opacity="0.309998"
           id="g1159">
          <g
             id="g1157">
            <g
               clip-path="url(#clipPath1139)"
               id="g1155">
              <g
                 id="g1153">
                <g
                   id="g1151">
                  <path
                     d="m 1057.883,651.613 c -0.01,-0.754 -0.039,-1.499 -0.053,-2.251 h 48.552 V 206.061 H 843.774 596.586 L 781.976,28.765 c 22.73,-3.07 45.94,-4.65 69.51,-4.65 260.62,0 476.11,193.27 510.951,444.3 l -350.565,368.242 c 29.513,-50.006 46.898,-114.615 46.011,-185.044"
                     style="fill:url(#linearGradient1147);stroke:none"
                     id="path1149" />
                </g>
              </g>
            </g>
          </g>
        </g>
      </g>
    </g>
    <g
       id="g1163"
       transform="translate(688.9443,735.7646)">
      <path
         d="m 0,0 -7.936,2.885 c -6.203,2.256 -9.433,9.176 -7.177,15.378 L 8.692,83.739 c 2.255,6.203 9.175,9.433 15.378,7.178 l 7.936,-2.886 c 6.203,-2.255 9.433,-9.175 7.178,-15.378 L 15.378,7.177 C 13.123,0.975 6.203,-2.255 0,0 m 6.542,-71.512 c 0,-6.6 -5.4,-12 -12,-12 h -8.445 c -6.6,0 -12,5.4 -12,12 v 34.827 c 0,6.601 5.4,12 12,12 h 8.445 c 6.6,0 12,-5.399 12,-12 z m 9.43,26.401 c 4.632,110.367 67.715,189.555 149.94,189.555 82.226,0 138.491,-75.168 147.813,-189.555 1.152,-14.138 1.431,-27.931 -0.347,-41.292 h 55.508 c 0.013,0.752 0.043,1.498 0.052,2.251 0.887,70.429 -16.498,135.039 -46.01,185.044 -36.465,61.785 -91.45,101.269 -153.425,101.809 C 57.375,203.678 -35.13,76.841 -37.113,-80.607 c -0.025,-1.937 -0.032,-3.869 -0.029,-5.796 h 55.761 c -2.151,13.284 -3.245,27.059 -2.647,41.292"
         style="fill:#3a3d36;fill-opacity:1;fill-rule:nonzero;stroke:none"
         id="path1165" />
    </g>
    <g
       id="g1167"
       transform="translate(617.105,412.3262)">
      <path
         d="m 0,0 c 0,6.601 5.4,12 12,12 h 10.693 c 6.6,0 12,-5.399 12,-12 v -173.748 c 0,-6.6 -5.4,-12 -12,-12 H 12 c -6.6,0 -12,5.4 -12,12 z m 1.125,146.012 c 0,6.6 5.399,12 12,12 h 8.444 c 6.6,0 12,-5.4 12,-12 V 65.826 c 0,-6.6 -5.4,-12 -12,-12 h -8.444 c -6.601,0 -12,5.4 -12,12 z m 225.544,-231.98 c -6.427,2.223 -11.083,8.332 -11.083,15.49 v 45.046 c -23.652,8.953 -40.475,31.803 -40.475,58.592 0,30.811 22.252,56.408 51.558,61.643 V 237.036 H 90.458 34.698 -20.519 v -443.302 h 247.188 z"
         style="fill:#facb03;fill-opacity:1;fill-rule:nonzero;stroke:none"
         id="path1169" />
    </g>
    <g
       id="g1171"
       transform="translate(1002.3223,649.3618)">
      <path
         d="m 0,0 h -158.548 v -142.233 c 3.599,0.644 7.298,0.998 11.082,0.998 34.596,0 62.641,-28.046 62.641,-62.64 0,-26.79 -16.823,-49.639 -40.476,-58.592 v -45.046 c 0,-9.019 -7.378,-16.397 -16.396,-16.397 h -11.537 c -1.861,0 -3.644,0.329 -5.314,0.907 V -443.301 H 104.06 V 0 H 55.508 Z"
         style="fill:#e7b122;fill-opacity:1;fill-rule:nonzero;stroke:none"
         id="path1173" />
    </g>
    <g
       id="g1175"
       transform="translate(849.0879,466.1523)">
      <path
         d="m 0,0 h 11.538 c 9.018,0 16.396,-7.379 16.396,-16.396 v -62.862 c 23.652,8.953 40.475,31.803 40.475,58.592 0,34.595 -28.045,62.641 -62.64,62.641 -3.784,0 -7.483,-0.355 -11.082,-0.998 -29.307,-5.235 -51.559,-30.832 -51.559,-61.643 0,-26.789 16.823,-49.639 40.476,-58.592 v 62.862 C -16.396,-7.379 -9.018,0 0,0"
         style="fill:#555551;fill-opacity:1;fill-rule:nonzero;stroke:none"
         id="path1177" />
    </g>
    <g
       id="g1179"
       transform="translate(860.6255,325.4521)">
      <path
         d="m 0,0 c 9.018,0 16.396,7.378 16.396,16.396 v 45.046 62.862 C 16.396,133.321 9.018,140.7 0,140.7 h -11.538 c -9.018,0 -16.396,-7.379 -16.396,-16.396 V 61.442 16.396 c 0,-7.158 4.656,-13.267 11.083,-15.49 C -15.181,0.329 -13.398,0 -11.538,0 Z"
         style="fill:#555551;fill-opacity:1;fill-rule:nonzero;stroke:none"
         id="path1181" />
    </g>
    <g
       id="g1183"
       transform="translate(629.105,226.5781)">
      <path
         d="m 0,0 h 10.693 c 6.6,0 12,5.4 12,12 v 173.748 c 0,6.601 -5.4,12 -12,12 H 0 c -6.6,0 -12,-5.399 -12,-12 V 12 C -12,5.4 -6.6,0 0,0"
         style="fill:#f4f4f4;fill-opacity:1;fill-rule:nonzero;stroke:none"
         id="path1185" />
    </g>
    <g
       id="g1187"
       transform="translate(630.2295,466.1523)">
      <path
         d="m 0,0 h 8.444 c 6.6,0 12,5.399 12,12 v 80.186 c 0,6.6 -5.4,12 -12,12 H 0 c -6.6,0 -12,-5.4 -12,-12 V 12 C -12,5.399 -6.6,0 0,0"
         style="fill:#f4f4f4;fill-opacity:1;fill-rule:nonzero;stroke:none"
         id="path1189" />
    </g>
    <g
       id="g1191"
       transform="translate(683.4858,711.0801)">
      <path
         d="m 0,0 h -8.445 c -6.599,0 -12,-5.4 -12,-12 v -34.827 c 0,-6.6 5.401,-12 12,-12 H 0 c 6.6,0 12,5.4 12,12 V -12 C 12,-5.4 6.6,0 0,0"
         style="fill:#a59d98;fill-opacity:1;fill-rule:nonzero;stroke:none"
         id="path1193" />
    </g>
    <g
       id="g1195"
       transform="translate(720.9507,823.7959)">
      <path
         d="M 0,0 -7.936,2.885 C -14.139,5.141 -21.059,1.911 -23.314,-4.292 L -47.12,-69.768 c -2.255,-6.203 0.975,-13.123 7.178,-15.378 l 7.936,-2.885 c 6.203,-2.256 13.123,0.974 15.378,7.177 L 7.177,-15.378 C 9.433,-9.175 6.203,-2.255 0,0"
         style="fill:#a59d98;fill-opacity:1;fill-rule:nonzero;stroke:none"
         id="path1197" />
    </g>
  </g>
  <text
     xml:space="preserve"
     style="font-style:normal;font-variant:normal;font-weight:bold;font-stretch:normal;font-size:64px;line-height:1.25;font-family:Calibri;-inkscape-font-specification:'Calibri, Bold';font-variant-ligatures:normal;font-variant-caps:normal;font-variant-numeric:normal;font-variant-east-asian:normal;letter-spacing:0px;word-spacing:0px;fill:#ffffff;fill-opacity:1;stroke:none"
     x="64.905174"
     y="498.2157"
     id="text1318"><tspan
       sodipodi:role="line"
       id="tspan952"
       x="64.905174"
       y="498.2157">19751015</tspan></text>
</svg>
